<svg width="50" height="54" viewBox="0 0 50 54" fill="none" xmlns="http://www.w3.org/2000/svg">
<path d="M26.583 53.166C36.4692 53.166 45.3586 47.7564 50 39.0398L29.2413 26.583L50 14.1262C45.3586 5.40964 36.4692 0 26.583 0C11.9251 0 0 11.9251 0 26.583C0 41.2409 11.9251 53.166 26.583 53.166ZM25.2539 10.6332C26.3118 10.6336 27.3262 11.0541 28.074 11.8024C28.8218 12.5507 29.2417 13.5654 29.2413 14.6233C29.241 15.6812 28.8204 16.6956 28.0721 17.4434C27.3238 18.1912 26.3091 18.6111 25.2512 18.6108C24.1933 18.6104 23.1789 18.1898 22.4311 17.4415C21.6833 16.6933 21.2634 15.6786 21.2638 14.6207C21.2641 13.5628 21.6847 12.5483 22.433 11.8006C23.1813 11.0528 24.196 10.6329 25.2539 10.6332V10.6332Z" fill="#FFD233"/>
</svg>
